<svg id="visual" viewBox="0 0 900 600" width="900" height="600" xmlns="http://www.w3.org/2000/svg" xmlns:xlink="http://www.w3.org/1999/xlink" version="1.1"><g stroke-width="1" stroke-linejoin="bevel"><path d="M396 325L335 371L373 374Z" fill="#277297" stroke="#277297"></path><path d="M396 325L313 265L335 371Z" fill="#081a28" stroke="#081a28"></path><path d="M396 325L410 210L313 265Z" fill="#00101c" stroke="#00101c"></path><path d="M410 210L318 198L313 265Z" fill="#297ea6" stroke="#297ea6"></path><path d="M230 467L293 488L335 371Z" fill="#1d4e6b" stroke="#1d4e6b"></path><path d="M335 371L293 488L373 374Z" fill="#277297" stroke="#277297"></path><path d="M189 386L335 371L313 265Z" fill="#1d4e6b" stroke="#1d4e6b"></path><path d="M175 289L189 386L313 265Z" fill="#1d4e6b" stroke="#1d4e6b"></path><path d="M189 386L230 467L335 371Z" fill="#297ea6" stroke="#297ea6"></path><path d="M535 418L531 266L396 325Z" fill="#112e42" stroke="#112e42"></path><path d="M396 325L531 266L410 210Z" fill="#0c2435" stroke="#0c2435"></path><path d="M535 418L396 325L373 374Z" fill="#0c2435" stroke="#0c2435"></path><path d="M191 206L175 289L313 265Z" fill="#277297" stroke="#277297"></path><path d="M531 266L486 196L410 210Z" fill="#1d4e6b" stroke="#1d4e6b"></path><path d="M410 210L392 116L318 198Z" fill="#00101c" stroke="#00101c"></path><path d="M293 488L433 515L373 374Z" fill="#297ea6" stroke="#297ea6"></path><path d="M433 515L535 418L373 374Z" fill="#246688" stroke="#246688"></path><path d="M318 198L191 206L313 265Z" fill="#00101c" stroke="#00101c"></path><path d="M486 196L392 116L410 210Z" fill="#081a28" stroke="#081a28"></path><path d="M318 198L269 125L191 206Z" fill="#15384f" stroke="#15384f"></path><path d="M392 116L269 125L318 198Z" fill="#15384f" stroke="#15384f"></path><path d="M535 418L612 285L531 266Z" fill="#297ea6" stroke="#297ea6"></path><path d="M531 266L595 206L486 196Z" fill="#15384f" stroke="#15384f"></path><path d="M486 196L536 93L392 116Z" fill="#246688" stroke="#246688"></path><path d="M433 515L524 537L535 418Z" fill="#19435d" stroke="#19435d"></path><path d="M535 418L637 427L612 285Z" fill="#00101c" stroke="#00101c"></path><path d="M482 600L524 537L433 515Z" fill="#15384f" stroke="#15384f"></path><path d="M524 537L580 475L535 418Z" fill="#246688" stroke="#246688"></path><path d="M104 429L122 462L189 386Z" fill="#19435d" stroke="#19435d"></path><path d="M189 386L122 462L230 467Z" fill="#112e42" stroke="#112e42"></path><path d="M287 600L396 600L293 488Z" fill="#0c2435" stroke="#0c2435"></path><path d="M293 488L396 600L433 515Z" fill="#0c2435" stroke="#0c2435"></path><path d="M104 429L189 386L81 328Z" fill="#112e42" stroke="#112e42"></path><path d="M287 600L293 488L230 467Z" fill="#205a7a" stroke="#205a7a"></path><path d="M81 328L189 386L175 289Z" fill="#0c2435" stroke="#0c2435"></path><path d="M612 285L595 206L531 266Z" fill="#1d4e6b" stroke="#1d4e6b"></path><path d="M189 600L287 600L230 467Z" fill="#112e42" stroke="#112e42"></path><path d="M75 217L81 328L175 289Z" fill="#0c2435" stroke="#0c2435"></path><path d="M396 600L482 600L433 515Z" fill="#15384f" stroke="#15384f"></path><path d="M524 537L624 600L580 475Z" fill="#19435d" stroke="#19435d"></path><path d="M682 525L637 427L580 475Z" fill="#081a28" stroke="#081a28"></path><path d="M580 475L637 427L535 418Z" fill="#00101c" stroke="#00101c"></path><path d="M193 0L170 101L269 125Z" fill="#297ea6" stroke="#297ea6"></path><path d="M269 125L170 101L191 206Z" fill="#00101c" stroke="#00101c"></path><path d="M191 206L75 217L175 289Z" fill="#112e42" stroke="#112e42"></path><path d="M595 206L536 93L486 196Z" fill="#19435d" stroke="#19435d"></path><path d="M392 116L295 0L269 125Z" fill="#00101c" stroke="#00101c"></path><path d="M137 119L75 217L191 206Z" fill="#1d4e6b" stroke="#1d4e6b"></path><path d="M170 101L137 119L191 206Z" fill="#00101c" stroke="#00101c"></path><path d="M122 462L189 600L230 467Z" fill="#246688" stroke="#246688"></path><path d="M83 600L189 600L122 462Z" fill="#277297" stroke="#277297"></path><path d="M536 93L400 0L392 116Z" fill="#205a7a" stroke="#205a7a"></path><path d="M595 206L627 130L536 93Z" fill="#19435d" stroke="#19435d"></path><path d="M536 93L535 0L400 0Z" fill="#15384f" stroke="#15384f"></path><path d="M681 179L627 130L595 206Z" fill="#297ea6" stroke="#297ea6"></path><path d="M681 179L595 206L612 285Z" fill="#246688" stroke="#246688"></path><path d="M400 0L295 0L392 116Z" fill="#19435d" stroke="#19435d"></path><path d="M170 101L98 0L137 119Z" fill="#277297" stroke="#277297"></path><path d="M0 199L0 307L75 217Z" fill="#112e42" stroke="#112e42"></path><path d="M75 217L0 307L81 328Z" fill="#0c2435" stroke="#0c2435"></path><path d="M81 328L0 415L104 429Z" fill="#112e42" stroke="#112e42"></path><path d="M104 429L0 465L122 462Z" fill="#00101c" stroke="#00101c"></path><path d="M735 272L681 179L612 285Z" fill="#081a28" stroke="#081a28"></path><path d="M0 307L0 415L81 328Z" fill="#1d4e6b" stroke="#1d4e6b"></path><path d="M295 0L193 0L269 125Z" fill="#00101c" stroke="#00101c"></path><path d="M0 92L0 199L75 217Z" fill="#0c2435" stroke="#0c2435"></path><path d="M482 600L624 600L524 537Z" fill="#246688" stroke="#246688"></path><path d="M637 427L733 392L612 285Z" fill="#297ea6" stroke="#297ea6"></path><path d="M624 600L682 525L580 475Z" fill="#277297" stroke="#277297"></path><path d="M0 415L0 465L104 429Z" fill="#00101c" stroke="#00101c"></path><path d="M0 465L83 600L122 462Z" fill="#205a7a" stroke="#205a7a"></path><path d="M682 525L733 392L637 427Z" fill="#112e42" stroke="#112e42"></path><path d="M569 0L536 93L627 130Z" fill="#081a28" stroke="#081a28"></path><path d="M569 0L535 0L536 93Z" fill="#205a7a" stroke="#205a7a"></path><path d="M0 92L75 217L137 119Z" fill="#15384f" stroke="#15384f"></path><path d="M733 392L735 272L612 285Z" fill="#112e42" stroke="#112e42"></path><path d="M731 0L569 0L627 130Z" fill="#112e42" stroke="#112e42"></path><path d="M624 600L681 600L682 525Z" fill="#0c2435" stroke="#0c2435"></path><path d="M806 494L798 410L733 392Z" fill="#00101c" stroke="#00101c"></path><path d="M193 0L98 0L170 101Z" fill="#297ea6" stroke="#297ea6"></path><path d="M98 0L0 92L137 119Z" fill="#277297" stroke="#277297"></path><path d="M789 209L732 107L681 179Z" fill="#0c2435" stroke="#0c2435"></path><path d="M681 179L732 107L627 130Z" fill="#297ea6" stroke="#297ea6"></path><path d="M0 465L0 600L83 600Z" fill="#205a7a" stroke="#205a7a"></path><path d="M733 392L817 304L735 272Z" fill="#19435d" stroke="#19435d"></path><path d="M735 272L789 209L681 179Z" fill="#112e42" stroke="#112e42"></path><path d="M806 494L733 392L682 525Z" fill="#15384f" stroke="#15384f"></path><path d="M817 304L789 209L735 272Z" fill="#081a28" stroke="#081a28"></path><path d="M798 410L817 304L733 392Z" fill="#205a7a" stroke="#205a7a"></path><path d="M802 600L806 494L682 525Z" fill="#1d4e6b" stroke="#1d4e6b"></path><path d="M900 373L900 331L817 304Z" fill="#081a28" stroke="#081a28"></path><path d="M98 0L0 0L0 92Z" fill="#205a7a" stroke="#205a7a"></path><path d="M829 116L732 107L789 209Z" fill="#0c2435" stroke="#0c2435"></path><path d="M806 0L731 0L732 107Z" fill="#112e42" stroke="#112e42"></path><path d="M732 107L731 0L627 130Z" fill="#00101c" stroke="#00101c"></path><path d="M681 600L802 600L682 525Z" fill="#112e42" stroke="#112e42"></path><path d="M900 373L817 304L798 410Z" fill="#297ea6" stroke="#297ea6"></path><path d="M900 182L829 116L789 209Z" fill="#205a7a" stroke="#205a7a"></path><path d="M900 182L789 209L817 304Z" fill="#205a7a" stroke="#205a7a"></path><path d="M900 373L798 410L900 474Z" fill="#19435d" stroke="#19435d"></path><path d="M900 474L798 410L806 494Z" fill="#00101c" stroke="#00101c"></path><path d="M900 600L900 474L806 494Z" fill="#297ea6" stroke="#297ea6"></path><path d="M900 0L806 0L829 116Z" fill="#246688" stroke="#246688"></path><path d="M829 116L806 0L732 107Z" fill="#297ea6" stroke="#297ea6"></path><path d="M900 331L900 182L817 304Z" fill="#0c2435" stroke="#0c2435"></path><path d="M900 182L900 120L829 116Z" fill="#1d4e6b" stroke="#1d4e6b"></path><path d="M802 600L900 600L806 494Z" fill="#277297" stroke="#277297"></path><path d="M900 120L900 0L829 116Z" fill="#297ea6" stroke="#297ea6"></path></g></svg>